<svg width="20" height="20" viewBox="0 0 20 20" fill="none" xmlns="http://www.w3.org/2000/svg">
<g clip-path="url(#clip0_52_1793)">
<path d="M1.0214 8.53538C0.68642 7.62895 0.44996 6.70282 0.509075 5.71757C0.548485 5.10671 0.784944 4.59439 1.23816 4.16088C1.71108 3.70766 2.184 3.21504 2.65692 2.76182C3.26777 2.15097 4.05597 2.15097 4.66682 2.76182C5.04122 3.13622 5.43532 3.53032 5.80971 3.90471C6.1841 4.27911 6.5585 4.6338 6.91319 5.00819C7.56345 5.65845 7.56345 6.42695 6.91319 7.07721C6.45997 7.55013 5.98705 8.00334 5.51413 8.45656C5.3959 8.57479 5.3762 8.67331 5.43531 8.83095C5.75059 9.57974 6.1841 10.23 6.69643 10.8606C7.70139 12.102 8.86398 13.2055 10.2236 14.0725C10.5192 14.2498 10.8345 14.3878 11.1498 14.5454C11.3074 14.6242 11.4059 14.6045 11.5439 14.4666C11.9971 13.9937 12.47 13.5207 12.9429 13.0478C13.5538 12.437 14.342 12.437 14.9528 13.0478C15.7016 13.7966 16.4701 14.5454 17.2189 15.3139C17.8494 15.9444 17.8494 16.7326 17.2189 17.3632C16.7854 17.7967 16.3322 18.2105 15.9381 18.6637C15.3469 19.314 14.6178 19.5307 13.7705 19.4913C12.5488 19.4322 11.4059 19.0184 10.3221 18.4864C7.89844 17.3041 5.80971 15.6686 4.07567 13.5996C2.77515 12.0823 1.71108 10.4073 1.0214 8.53538ZM19.4955 8.95077C19.0457 4.51185 15.5236 0.977616 11.0902 0.509114C10.555 0.452554 10.0857 0.863717 10.0857 1.40191V1.41912C10.0857 1.88014 10.4352 2.26323 10.8937 2.31153C14.4667 2.68798 17.3266 5.53208 17.7077 9.1172C17.7569 9.57934 18.1453 9.9301 18.61 9.92499C19.1322 9.91925 19.5481 9.47031 19.4955 8.95077ZM10.0857 4.80359V4.81617C10.0857 5.24582 10.3866 5.62768 10.8101 5.70021C11.6804 5.84927 12.4855 6.26508 13.1202 6.89987C13.755 7.53465 14.1708 8.33974 14.3199 9.20999C14.3924 9.63347 14.7743 9.93443 15.2039 9.93443H15.2118C15.766 9.93443 16.1964 9.43607 16.0995 8.89042C15.6495 6.35687 13.6471 4.35391 11.1261 3.91541C10.5816 3.82069 10.0857 4.25086 10.0857 4.80359Z" fill="#10551F"/>
</g>
<defs>
<clipPath id="clip0_52_1793">
<rect width="20" height="20" fill="white"/>
</clipPath>
</defs>
</svg>
